<svg xmlns="http://www.w3.org/2000/svg" viewBox="0 0 48 48" id="money"><rect width="39" height="21" x="2" y="11" fill="#006838"></rect><rect width="39" height="21" x="5" y="15" fill="#006838"></rect><circle cx="27" cy="29" r="5" fill="#ffde17"></circle><path fill="#00a14b" d="M9,38H45V20H9Zm34-2H41V34h2ZM41,22h2v2H41Zm-8,0h6a1,1,0,0,1,1,1,2,2,0,0,0,2,2,1,1,0,0,1,1,1v6a1,1,0,0,1-1,1,2,2,0,0,0-2,2,1,1,0,0,1-1,1H33V34h5.127A4.014,4.014,0,0,1,41,31.127V26.873A4.014,4.014,0,0,1,38.127,24H33Zm-6,0a7,7,0,1,1-7,7A7.009,7.009,0,0,1,27,22ZM11,22h2v2H11Zm0,4a1,1,0,0,1,1-1,2,2,0,0,0,2-2,1,1,0,0,1,1-1h6v2H15.873A4.014,4.014,0,0,1,13,26.873v4.254A4.014,4.014,0,0,1,15.873,34H21v2H15a1,1,0,0,1-1-1,2,2,0,0,0-2-2,1,1,0,0,1-1-1Zm0,8h2v2H11Z"></path><path d="M46,18H8a1,1,0,0,0-1,1V39a1,1,0,0,0,1,1H46a1,1,0,0,0,1-1V19A1,1,0,0,0,46,18ZM45,38H9V20H45Z"></path><path d="M42,17h2V15a1,1,0,0,0-1-1H5a1,1,0,0,0-1,1V35a1,1,0,0,0,1,1H6V16H42Z"></path><path d="M39 13h2V11a1 1 0 0 0-1-1H2a1 1 0 0 0-1 1V31a1 1 0 0 0 1 1H3V12H39zM27 36a7 7 0 1 0-7-7A7.009 7.009 0 0 0 27 36zm0-12a5 5 0 1 1-5 5A5.006 5.006 0 0 1 27 24z"></path><path d="M12 33a2 2 0 0 1 2 2 1 1 0 0 0 1 1h6V34H15.873A4.014 4.014 0 0 0 13 31.127V26.873A4.014 4.014 0 0 0 15.873 24H21V22H15a1 1 0 0 0-1 1 2 2 0 0 1-2 2 1 1 0 0 0-1 1v6A1 1 0 0 0 12 33zM41 26.873v4.254A4.014 4.014 0 0 0 38.127 34H33v2h6a1 1 0 0 0 1-1 2 2 0 0 1 2-2 1 1 0 0 0 1-1V26a1 1 0 0 0-1-1 2 2 0 0 1-2-2 1 1 0 0 0-1-1H33v2h5.127A4.014 4.014 0 0 0 41 26.873z"></path><rect width="2" height="2" x="41" y="22"></rect><rect width="2" height="2" x="41" y="34"></rect><rect width="2" height="2" x="11" y="34"></rect><rect width="2" height="2" x="11" y="22"></rect></svg>