<svg xmlns="http://www.w3.org/2000/svg" width="32" height="32" id="sale"><path fill="#df1e49" d="m25.338 21.85-7.187 6.24v-4.887l7.187-6.241zM15.275 17.02 28.213 5.921v6.842L15.275 23.862z"></path><path fill="#ff1e55" d="m15.276 23.868 10.062-2.016V15.01l-10.062 2.016zM3.781 8.378 28.22 3.91v8.797l-24.438 4.47z"></path><path style="line-height:125%;-inkscape-font-specification:'Bebas Neue Bold'" fill="#fff" d="m22.56 5.818-2.78.537v6.487l2.78-.537v-.928l-1.761.34V9.818l1.4-.271V8.62l-1.4.27V7.084l1.762-.34v-.926zm-4.91.95-1.02.197v6.486l2.698-.521v-.928l-1.678.324V6.768zm-2.523.488-1.49.287-1.04 6.687.936-.181.178-1.211 1.25-.24.176 1.142 1.029-.199-1.039-6.285zm-3.996.724a2.145 2.145 0 0 0-.35.041c-.991.192-1.5.885-1.5 1.922 0 1.854 1.992 1.717 1.992 3.051 0 .463-.205.67-.529.733-.324.063-.527-.065-.527-.528v-.463l-.965.186v.398c0 1.038.519 1.532 1.52 1.338 1-.193 1.519-.888 1.519-1.926 0-1.853-1.992-1.718-1.992-3.052 0-.464.185-.674.51-.737.324-.063.51.078.51.541v.268l.964-.186v-.205c0-.908-.39-1.4-1.152-1.38zm3.2.579.491 3.185-.982.19.49-3.375z" font-family="Bebas Neue" font-size="9.266" font-weight="700" letter-spacing="0" word-spacing="0"></path></svg>